<svg version="1.1" xmlns="http://www.w3.org/2000/svg" style="display: block;" viewBox="183.0 176.4 1690.2 1690.2" width="128" height="128" preserveAspectRatio="none">
<path transform="translate(0,0)" fill="#e8ede9" d="M 660.786 299.822 C 671.252 298.579 694.816 299.745 706.492 299.833 L 795.181 299.935 L 978.227 299.836 C 1008.18 299.849 1040.65 299.214 1070.39 300.067 C 1102.33 321.567 1146.45 346.51 1180.33 366.814 L 1418.52 507.817 C 1441.04 521.211 1463.69 534.404 1486.45 547.394 C 1498.66 554.423 1511 561.58 1523.02 568.909 C 1537.03 577.456 1533.21 602.061 1533.27 617.263 L 1533.55 689.18 L 1533.76 932.454 C 1533.77 964.224 1533.11 997.051 1533.64 1028.7 C 1532.3 1050.49 1533.57 1074.56 1533.49 1096.48 C 1533.46 1102.05 1534.27 1123.22 1533.19 1127.76 L 1532.47 1137.86 C 1528.82 1136.22 1469.48 1025.89 1463.04 1012.38 C 1448.87 1021.12 1406.27 1049.06 1392.16 1053.87 C 1416.2 1096.73 1440.49 1140.38 1465.1 1182.89 C 1484.03 1216.26 1505.13 1253.39 1524.76 1286.33 C 1539.81 1312.2 1555.35 1340.64 1570.52 1365.98 C 1542.54 1383.21 1512.21 1401.02 1483.87 1417.88 C 1492.18 1432.26 1518.59 1476.6 1522.94 1490.08 C 1515.51 1492.96 1491.94 1508.02 1484.19 1512.76 L 1413.36 1555.67 L 1140.99 1721.56 C 1122.18 1733.25 1112.86 1736.88 1091.19 1741.19 C 1028.77 1753.63 986.157 1717.4 935.937 1687.32 L 846.229 1633.8 L 604.058 1489.05 L 343.687 1333.73 C 308.633 1312.52 272.968 1291.44 238.234 1269.76 C 227.118 1262.83 214.426 1252.4 207.688 1240.94 C 199.761 1227.18 197.549 1210.86 201.529 1195.49 C 209.246 1166.48 230.928 1154.87 254.855 1140.36 C 272.471 1129.68 290.104 1119.08 307.859 1108.61 L 425.025 1039.08 L 425.716 1159.47 C 425.623 1182.65 425.115 1207.39 425.817 1230.57 C 426.41 1236.47 428.554 1242.08 432.144 1246.65 C 444.376 1262.19 473.944 1254.86 475.928 1234.91 C 477.867 1215.41 476.863 1193.29 476.855 1173.58 L 476.913 1066.91 C 476.925 1048.31 476.267 1024.7 477.304 1006.49 C 536.278 971.09 595.505 936.111 654.98 901.557 C 655.614 889.242 655.121 872.661 655.111 860.082 L 655.055 779.645 L 655.355 531.228 C 634.048 515.26 581.85 493.045 571.078 475.359 C 570.841 454.718 577.767 448.54 586.712 430.543 C 597.836 407.636 609.267 384.879 621.002 362.278 C 630.558 343.762 639.533 324.956 649.179 306.5 C 651.787 301.509 655.732 300.895 660.786 299.822 z"/>
<path transform="translate(0,0)" fill="#1f2a34" d="M 660.786 299.822 C 671.252 298.579 694.816 299.745 706.492 299.833 L 795.181 299.935 L 978.227 299.836 C 1008.18 299.849 1040.65 299.214 1070.39 300.067 C 1102.33 321.567 1146.45 346.51 1180.33 366.814 L 1418.52 507.817 C 1441.04 521.211 1463.69 534.404 1486.45 547.394 C 1498.66 554.423 1511 561.58 1523.02 568.909 C 1537.03 577.456 1533.21 602.061 1533.27 617.263 L 1533.55 689.18 L 1533.76 932.454 C 1533.77 964.224 1533.11 997.051 1533.64 1028.7 C 1532.3 1050.49 1533.57 1074.56 1533.49 1096.48 C 1533.46 1102.05 1534.27 1123.22 1533.19 1127.76 L 1532.47 1137.86 C 1528.82 1136.22 1469.48 1025.89 1463.04 1012.38 C 1448.87 1021.12 1406.27 1049.06 1392.16 1053.87 C 1359.19 1059.15 1323.75 1043.3 1296.72 1025.75 C 1236.22 986.47 1195.57 928.591 1176.07 859.639 C 1170.75 840.809 1169.36 828.238 1165.41 810.117 C 1155.73 819.142 1146.62 821.172 1134.76 814.87 C 1118.86 806.416 1103.82 796.439 1088.37 787.156 L 997.826 733.106 L 776.296 602.687 C 736.627 579.351 695.456 552.754 655.355 531.228 C 634.048 515.26 581.85 493.045 571.078 475.359 C 570.841 454.718 577.767 448.54 586.712 430.543 C 597.836 407.636 609.267 384.879 621.002 362.278 C 630.558 343.762 639.533 324.956 649.179 306.5 C 651.787 301.509 655.732 300.895 660.786 299.822 z"/>
<path transform="translate(0,0)" fill="#e8ede9" d="M 571.078 475.359 C 570.841 454.718 577.767 448.54 586.712 430.543 C 597.836 407.636 609.267 384.879 621.002 362.278 C 630.558 343.762 639.533 324.956 649.179 306.5 C 651.787 301.509 655.732 300.895 660.786 299.822 C 779.513 368.917 897.761 438.832 1015.52 509.563 L 1142.82 585.298 L 1183.81 609.703 C 1191 613.983 1198.89 618.399 1205.68 623.17 C 1216.53 630.79 1215.7 648.408 1219.21 659.936 C 1169.39 684.359 1159.36 761.436 1165.41 810.117 C 1155.73 819.142 1146.62 821.172 1134.76 814.87 C 1118.86 806.416 1103.82 796.439 1088.37 787.156 L 997.826 733.106 L 776.296 602.687 C 736.627 579.351 695.456 552.754 655.355 531.228 C 634.048 515.26 581.85 493.045 571.078 475.359 z"/>
<path transform="translate(0,0)" fill="#4fa97a" d="M 1219.21 659.936 C 1258.83 647.517 1296.72 659.083 1332.76 677.61 C 1403.23 713.839 1460.42 785.146 1484.46 860.302 C 1496.71 898.628 1501.71 952.153 1481.83 988.999 C 1477.07 997.891 1470.7 1005.82 1463.04 1012.38 C 1448.87 1021.12 1406.27 1049.06 1392.16 1053.87 C 1359.19 1059.15 1323.75 1043.3 1296.72 1025.75 C 1236.22 986.47 1195.57 928.591 1176.07 859.639 C 1170.75 840.809 1169.36 828.238 1165.41 810.117 C 1159.36 761.436 1169.39 684.359 1219.21 659.936 z"/>
<path transform="translate(0,0)" fill="#1f2a34" d="M 1247.16 724.181 C 1286.79 721.147 1327.16 781.943 1314.72 817.886 C 1312.57 824.091 1304.95 827.97 1299.22 829.951 C 1253.01 838.839 1202.08 744.612 1247.16 724.181 z"/>
<path transform="translate(0,0)" fill="#4fa97a" d="M 477.304 1006.49 C 536.278 971.09 595.505 936.111 654.98 901.557 L 654.911 996.926 C 622.461 1016.71 590.218 1036.84 558.188 1057.3 C 547.531 1064.01 521.232 1079.34 512.622 1086.07 L 923.141 1328.87 C 982.788 1363.83 1042.21 1399.17 1101.39 1434.91 C 1132.91 1453.68 1161.83 1469.3 1193 1489.44 C 1215.25 1476.86 1238.49 1461.93 1260.34 1448.43 L 1350.24 1393.56 L 1448.01 1333.97 C 1472.88 1318.89 1500.69 1302.61 1524.76 1286.33 C 1539.81 1312.2 1555.35 1340.64 1570.52 1365.98 C 1542.54 1383.21 1512.21 1401.02 1483.87 1417.88 C 1492.18 1432.26 1518.59 1476.6 1522.94 1490.08 C 1515.51 1492.96 1491.94 1508.02 1484.19 1512.76 L 1413.36 1555.67 L 1140.99 1721.56 C 1122.18 1733.25 1112.86 1736.88 1091.19 1741.19 C 1028.77 1753.63 986.157 1717.4 935.937 1687.32 L 846.229 1633.8 L 604.058 1489.05 L 343.687 1333.73 C 308.633 1312.52 272.968 1291.44 238.234 1269.76 C 227.118 1262.83 214.426 1252.4 207.688 1240.94 C 199.761 1227.18 197.549 1210.86 201.529 1195.49 C 209.246 1166.48 230.928 1154.87 254.855 1140.36 C 272.471 1129.68 290.104 1119.08 307.859 1108.61 L 425.025 1039.08 L 425.716 1159.47 C 425.623 1182.65 425.115 1207.39 425.817 1230.57 C 426.41 1236.47 428.554 1242.08 432.144 1246.65 C 444.376 1262.19 473.944 1254.86 475.928 1234.91 C 477.867 1215.41 476.863 1193.29 476.855 1173.58 L 476.913 1066.91 C 476.925 1048.31 476.267 1024.7 477.304 1006.49 z"/>
<path transform="translate(0,0)" fill="#1f2a34" d="M 655.355 531.228 C 695.456 552.754 736.627 579.351 776.296 602.687 L 997.826 733.106 L 1088.37 787.156 C 1103.82 796.439 1118.86 806.416 1134.76 814.87 C 1146.62 821.172 1155.73 819.142 1165.41 810.117 C 1169.36 828.238 1170.75 840.809 1176.07 859.639 C 1195.57 928.591 1236.22 986.47 1296.72 1025.75 C 1323.75 1043.3 1359.19 1059.15 1392.16 1053.87 C 1416.2 1096.73 1440.49 1140.38 1465.1 1182.89 C 1432.26 1203.83 1394.76 1225.19 1361.07 1245.39 L 1209.24 1337.65 C 1176.32 1320.1 1141.93 1296.97 1108.06 1278.4 L 1108.1 997.792 L 1108.15 919.127 C 1108.18 862.317 1114.43 871.696 1066.7 842.441 C 1025.25 817.13 983.53 792.267 941.545 767.856 C 887.175 735.582 833.451 702.231 778.498 670.956 C 770.529 666.058 763.139 664.609 754.173 668.131 C 742.707 672.635 740.747 680.16 740.144 691.569 C 739.425 705.168 739.748 719.07 739.723 732.717 L 739.608 811.178 L 739.855 1062.34 C 731.194 1058.26 717.855 1050.01 709.453 1045.04 C 691.423 1034.17 673.247 1023.54 654.93 1013.17 L 654.911 996.926 L 654.98 901.557 C 655.614 889.242 655.121 872.661 655.111 860.082 L 655.055 779.645 L 655.355 531.228 z"/>
<path transform="translate(0,0)" fill="#1f2a34" d="M 789.483 737.479 L 895.733 798.862 C 893.121 916.284 896.977 1035.84 894.88 1153.22 C 889.971 1150.69 885.275 1147.59 880.476 1144.85 C 849.96 1127.41 819.936 1108.5 789.174 1091.56 C 788.079 997.663 789.748 903.51 789.112 809.587 C 788.95 785.709 788.731 761.306 789.483 737.479 z"/>
<path transform="translate(0,0)" fill="#1f2a34" d="M 950.758 831.093 C 973.185 842.9 994.931 858.65 1017.33 870.902 C 1030.29 877.995 1043.63 885.642 1056.19 893.351 C 1055.49 925.837 1056.21 959.604 1055.99 992.212 C 1055.43 1077.31 1056.62 1162.78 1055.58 1247.85 C 1026.95 1228.06 982.291 1204.79 950.923 1185.48 C 949.331 1161.49 950.063 1128.55 950.005 1103.95 L 950.004 955.334 L 949.955 874.4 C 949.949 864.28 949.403 840.236 950.758 831.093 z"/>
<path transform="translate(0,0)" fill="#6e8ca0" d="M 1463.04 1012.38 C 1469.48 1025.89 1528.82 1136.22 1532.47 1137.86 L 1533.19 1127.76 C 1534.27 1123.22 1533.46 1102.05 1533.49 1096.48 C 1533.57 1074.56 1532.3 1050.49 1533.64 1028.7 C 1597.34 1063.96 1660.78 1099.7 1723.94 1135.91 L 1786.06 1171.12 C 1812.95 1186.56 1845.42 1201.46 1854.49 1233.65 C 1858.83 1249.54 1856.67 1266.51 1848.49 1280.82 C 1837.01 1301.15 1814.36 1312.21 1795.38 1324.35 C 1757.23 1348.73 1714.74 1370.54 1677.33 1395.77 C 1703.43 1447.26 1734.56 1497.29 1762.34 1547.99 C 1774.29 1569.8 1791.11 1595.31 1800.51 1618.13 C 1806.57 1632.86 1800.16 1660.54 1787.58 1670.41 C 1773.1 1682.82 1754.99 1691.43 1739.02 1701.84 C 1717.07 1715.18 1691.62 1732.28 1669.01 1743.76 C 1658.95 1722.04 1642.8 1698.12 1634.67 1677.15 C 1644.24 1670.37 1678.47 1650.46 1689.28 1645.09 C 1681.51 1630.55 1673.06 1616.48 1665.44 1601.89 C 1650.63 1609.68 1624.94 1627.12 1613.24 1632.3 C 1603.22 1611.6 1591.47 1592.05 1581.77 1572.14 C 1599.83 1560.95 1619 1548.95 1637.34 1538.34 C 1630.19 1521.85 1622.86 1508.92 1613.88 1493.48 C 1599.58 1500.77 1587.74 1510.73 1573.42 1517.55 C 1566.33 1502.31 1561.02 1487 1554.39 1472.44 C 1546.81 1477.03 1530.46 1488.5 1522.94 1490.08 C 1518.59 1476.6 1492.18 1432.26 1483.87 1417.88 C 1512.21 1401.02 1542.54 1383.21 1570.52 1365.98 C 1555.35 1340.64 1539.81 1312.2 1524.76 1286.33 C 1505.13 1253.39 1484.03 1216.26 1465.1 1182.89 C 1440.49 1140.38 1416.2 1096.73 1392.16 1053.87 C 1406.27 1049.06 1448.87 1021.12 1463.04 1012.38 z M 1585.46 1233.11 C 1586.63 1235.52 1586.83 1236.07 1588.48 1238.15 L 1590.97 1242.63 C 1611.6 1232.09 1636.75 1215.49 1656.79 1202.99 C 1646.21 1195.76 1629.63 1186.64 1618.29 1179.98 C 1597.73 1167.71 1577.03 1155.69 1556.18 1143.92 C 1550.89 1141.17 1542.39 1135.34 1537.62 1131.68 C 1537.23 1140.73 1537.09 1140.12 1538.52 1148.84 C 1541.08 1157.48 1578.69 1223.24 1585.46 1233.11 z"/>
<path transform="translate(0,0)" fill="#e8ede9" fill-opacity="0.964706" d="M 1556.18 1143.92 C 1577.03 1155.69 1597.73 1167.71 1618.29 1179.98 C 1629.63 1186.64 1646.21 1195.76 1656.79 1202.99 C 1636.75 1215.49 1611.6 1232.09 1590.97 1242.63 L 1588.48 1238.15 C 1598.44 1236.02 1594.53 1229.84 1585.46 1233.11 C 1578.69 1223.24 1541.08 1157.48 1538.52 1148.84 C 1542.94 1152.09 1543.33 1153.45 1551.46 1148.78 C 1554.45 1147.06 1548.57 1146.87 1556.18 1143.92 z"/>
<path transform="translate(0,0)" fill="#e8ede9" fill-opacity="0.431373" d="M 1537.62 1131.68 C 1542.39 1135.34 1550.89 1141.17 1556.18 1143.92 C 1548.57 1146.87 1554.45 1147.06 1551.46 1148.78 C 1543.33 1153.45 1542.94 1152.09 1538.52 1148.84 C 1537.09 1140.12 1537.23 1140.73 1537.62 1131.68 z"/>
<path transform="translate(0,0)" fill="#e8ede9" fill-opacity="0.882353" d="M 1585.46 1233.11 C 1594.53 1229.84 1598.44 1236.02 1588.48 1238.15 C 1586.83 1236.07 1586.63 1235.52 1585.46 1233.11 z"/>
<path transform="translate(0,0)" fill="#4fa97a" d="M 1533.64 1028.7 C 1597.34 1063.96 1660.78 1099.7 1723.94 1135.91 L 1786.06 1171.12 C 1812.95 1186.56 1845.42 1201.46 1854.49 1233.65 C 1858.83 1249.54 1856.67 1266.51 1848.49 1280.82 C 1837.01 1301.15 1814.36 1312.21 1795.38 1324.35 C 1757.23 1348.73 1714.74 1370.54 1677.33 1395.77 C 1659.95 1368.57 1643.75 1340.63 1628.76 1312.04 C 1616.13 1288.25 1605.07 1265.72 1590.97 1242.63 C 1611.6 1232.09 1636.75 1215.49 1656.79 1202.99 C 1646.21 1195.76 1629.63 1186.64 1618.29 1179.98 C 1597.73 1167.71 1577.03 1155.69 1556.18 1143.92 C 1550.89 1141.17 1542.39 1135.34 1537.62 1131.68 L 1533.19 1127.76 C 1534.27 1123.22 1533.46 1102.05 1533.49 1096.48 C 1533.57 1074.56 1532.3 1050.49 1533.64 1028.7 z"/>
<path transform="translate(0,0)" fill="#1f2a34" d="M 425.012 644.479 C 399.34 631.592 371.749 615.618 347.265 600.37 C 340.491 596.151 333.952 588.704 333.72 580.191 C 332.57 537.935 332.171 494.522 334.78 452.332 C 335.028 448.32 337.133 443.927 339.606 440.863 C 344.005 435.423 350.49 432.087 357.473 431.672 C 389.787 429.702 384.115 471.583 384.136 492.58 L 384.189 563.404 C 394.542 570.592 414.239 581.319 425.77 587.608 C 426.879 559.139 424.872 529.631 425.691 501.246 C 426.363 477.954 418.762 443.993 451.553 441.605 C 461.747 440.862 474.682 451.083 475.876 461.025 C 477.901 477.88 477.041 496.117 477.028 513.153 L 476.934 617.005 L 514.498 637.224 C 515.639 621.073 514.392 604.189 514.743 587.951 C 515.107 571.072 511.817 549.997 529.984 540.804 C 536.146 537.73 543.316 537.38 549.749 539.839 C 555.76 542.13 561.885 546.977 564.235 553.129 C 568.587 564.516 569.03 668.07 567.157 684.208 C 566.881 686.712 566.183 689.151 565.093 691.422 C 552.852 716.915 526.266 701.218 509.646 691.468 C 499.42 685.469 487.818 679.818 477.047 674.797 C 476.601 691.709 476.138 709.562 476.556 726.434 C 478.855 819.303 474.46 913.786 477.304 1006.49 C 476.267 1024.7 476.925 1048.31 476.913 1066.91 L 476.855 1173.58 C 476.863 1193.29 477.867 1215.41 475.928 1234.91 C 473.944 1254.86 444.376 1262.19 432.144 1246.65 C 428.554 1242.08 426.41 1236.47 425.817 1230.57 C 425.115 1207.39 425.623 1182.65 425.716 1159.47 L 425.025 1039.08 C 426.574 908.86 424.982 774.95 425.012 644.479 z"/>
</svg>
