<svg version="1.1" xmlns="http://www.w3.org/2000/svg" style="display: block;" viewBox="227.2 225.5 1597.7 1597.7" width="128" height="128" preserveAspectRatio="none">
<defs>
	<linearGradient id="Gradient1" gradientUnits="userSpaceOnUse" x1="952.48" y1="1332.32" x2="868.988" y2="1349.94">
		<stop class="stop0" offset="0" stop-opacity="0.964706" stop-color="#e8ede9"/>
		<stop class="stop1" offset="1" stop-opacity="1" stop-color="#e8ede9"/>
	</linearGradient>
</defs>
<path transform="translate(0,0)" fill="#1f2a34" d="M 340.405 593.569 C 354.085 573.389 366.838 569.36 387.777 558.08 C 407.419 547.483 427.163 537.076 447.007 526.862 L 595.037 448.346 L 842.599 316.269 L 915.42 277.689 C 939.469 265 963.526 248.805 990.359 243.3 C 1025.9 236.008 1047.33 248.121 1077.32 263.853 L 1133.41 293.269 L 1331.35 396.661 L 1627.55 550.334 L 1706.88 591.515 C 1734.78 605.79 1762.9 614.979 1778.32 643.749 C 1787.03 668.363 1783.99 704.449 1783.8 731.936 C 1783 786.188 1783.47 841.606 1783.47 895.969 L 1783.48 1190.7 L 1783.87 1314.13 C 1783.96 1412.49 1785.7 1406.33 1701.2 1454.72 L 1577.91 1524.72 L 1318.4 1673.82 L 1234.21 1722.07 C 1196.09 1744.18 1156.47 1774.71 1108.17 1756.42 C 1082.43 1746.66 1058.23 1728.52 1033.61 1716.12 C 1021.23 1709.02 987.989 1691.29 977.251 1683.47 C 976.166 1621.46 977.452 1558.76 976.549 1496.69 C 957.559 1485.65 938.422 1474.87 919.144 1464.34 C 909.559 1459.08 889.701 1447.98 879.852 1444.16 C 879.209 1463.67 882.347 1610.12 878.308 1616.86 C 848.983 1631.75 814.034 1654.54 784.829 1671.24 C 706.544 1716.01 629.843 1763.21 551.209 1807.52 C 462.599 1760.11 373.591 1713.44 284.194 1667.53 C 296.184 1661.34 310.821 1652.3 322.756 1645.46 C 355.902 1626.55 388.772 1607.16 421.355 1587.29 C 387.771 1568.97 355.264 1551.6 321.16 1534.15 C 306.09 1526.43 281.303 1514.68 267.658 1506.05 C 267.512 1485.5 267.954 1478.81 278.464 1460.95 C 281.116 1457.04 284.523 1452.73 288.503 1450.18 C 325.683 1426.36 366.076 1405.83 402.548 1380.93 C 383.13 1369.2 332.442 1348.79 331.234 1324.94 C 330.05 1301.53 330.118 1274.11 330.114 1250.5 L 330.077 1118.94 L 330.012 661.05 C 329.899 633.363 326.506 617.94 340.405 593.569 z M 421.596 1362.59 L 421.666 1364.26 C 421.87 1372.38 428.906 1366.9 432.731 1363.56 C 462.189 1348.19 491.371 1328.97 520.302 1312.33 C 531.161 1306.08 543.733 1298.77 553.924 1291.78 C 553.552 1291.44 553.046 1291.16 552.976 1290.72 C 553.098 1290.4 553.598 1290.17 553.834 1290.03 C 556.641 1288.35 559.81 1286.94 562.508 1285.17 L 562.624 1284.5 C 561.768 1283.88 560.116 1284.25 559.559 1283.49 L 559.683 1283.37 L 559.638 1283.65 C 561.145 1282.69 561.2 1283.21 562.593 1282.62 C 572.789 1278.31 557.637 1275.14 556.297 1274.01 C 556.419 1273.91 556.369 1273.93 556.616 1273.94 C 556.883 1273.94 557.212 1274.1 557.418 1273.93 C 556.026 1271.38 548.354 1271.48 550.134 1267.57 C 533.914 1257.27 507.593 1243.64 490.265 1234.15 C 470.098 1223.11 442.393 1206.81 421.872 1197.41 L 421.906 1305.71 C 421.874 1323.86 422.289 1344.72 421.596 1362.59 z M 603.397 942.418 L 603.022 941.152 C 602.063 937.436 598.887 937.441 595.608 937.15 C 595.785 941.365 599.743 941.521 603.397 942.418 z M 724.582 1270.24 L 723.478 1268.72 C 720.824 1264.97 718.59 1265.09 714.32 1265.09 C 717.51 1268.96 719.131 1269.6 723.963 1270.17 L 724.582 1270.24 z M 639.322 908.481 C 637.406 907.086 636.068 906.486 634.078 904.994 L 631.368 904.62 C 629.072 908.797 630.557 952.22 630.676 959.991 C 655.247 974.983 699.958 999.402 725.9 1012.05 L 725.958 954.324 C 701.693 940.853 664.145 920.191 639.322 908.481 z M 605.565 1022.21 C 586.899 1012.33 558.61 998.253 541.07 987.37 L 538.212 985.928 L 521.041 976.708 C 521.103 978.234 521.02 978.123 520.066 979.531 C 517.57 978.899 515.268 978.305 512.802 977.56 C 512.202 977.839 511.443 978.429 510.755 978.454 C 510.18 977.83 510.071 972.593 509.89 971.229 C 508.111 980.93 509.041 1015.81 509.178 1027.66 C 540.986 1045.54 573.089 1062.88 605.472 1079.69 C 605.734 1060.53 605.765 1041.37 605.565 1022.21 z M 725.157 1142.61 C 725.674 1123.69 725.209 1105.04 725.427 1086.21 C 698.93 1070.48 670.599 1056.86 643.524 1042.11 C 639.574 1039.95 634.204 1036.87 630.087 1035.22 C 630.196 1053.91 630.017 1073.44 630.512 1092.06 C 661.022 1108.72 695.821 1125.56 725.157 1142.61 z M 843.14 1204.49 C 843.879 1187.04 843.715 1166.61 843.385 1148.99 C 812.305 1132.43 780.094 1114.23 748.795 1098.56 C 748.782 1117.17 748.874 1135.77 749.071 1154.37 C 759.557 1160.79 835.739 1204.16 843.14 1204.49 z M 840.448 1070.77 L 840.193 1069.14 C 839.594 1064.78 837.58 1064.89 833.489 1063.94 C 833.847 1069.69 835.229 1069.45 840.448 1070.77 z M 960.083 1267.78 L 960.182 1211.89 C 930.813 1194.86 897.115 1176.37 867.067 1160.47 L 867.154 1218.01 C 892.841 1232.75 933.275 1255.46 960.083 1267.78 z M 958.773 1401.74 C 959.381 1401.87 959.936 1402.1 960.463 1401.93 C 961.28 1401.03 960.694 1356.94 960.693 1351.72 C 960.434 1348.33 961.01 1347.2 957.612 1344.87 C 947.707 1338.07 935.756 1332 925.195 1326.25 L 867.319 1294.76 C 867.052 1313.95 867.069 1333.15 867.37 1352.34 C 878.994 1358.35 945.182 1396.88 951.703 1397.86 C 953.556 1399 955.428 1400.03 957.369 1401.01 L 958.773 1401.74 z M 393.603 779.995 C 393.128 786.328 393.115 800.083 393.861 806.098 C 393.327 814.154 393.815 828.055 393.861 836.439 C 423.817 854.031 454.787 869.189 485.311 885.607 C 485.67 867.044 485.3 847.589 485.218 828.963 C 469.554 819.161 441.622 804.114 424.66 795.694 C 421.631 793.885 414.193 789.696 411.022 788.438 C 405.497 786.037 401.176 782.804 395.261 780.638 L 393.603 779.995 z M 749.386 1288.78 C 750.542 1282.01 749.27 1240.23 750.563 1238.8 C 752.859 1238.55 755.259 1241.55 758.033 1238.7 L 759.242 1237.43 C 755.623 1235.06 752.739 1233.58 749.014 1231.51 C 749.068 1241.15 748.39 1282.25 749.386 1288.78 z M 485.272 958.275 C 466.045 946.657 442.417 934.337 422.324 923.959 C 416.971 920.701 407.162 915.271 401.503 912.895 L 398.582 911.168 C 397.343 910.276 393.322 908.138 393.421 909.439 C 394.516 923.749 390.731 954.515 393.87 967.282 C 421.299 982.112 453.249 1000.07 480.503 1013.62 C 481.724 1014.34 482.939 1015.25 484.331 1015.59 C 484.564 1015.64 485.421 1015.56 485.417 1015.33 C 485.079 998.667 487.521 974.419 485.272 958.275 z M 1724.72 1302.54 C 1725.07 1292.19 1724.97 1281.23 1724.16 1270.95 C 1723.96 1268.43 1717.05 1273.45 1716.62 1273.71 C 1718.75 1280.38 1720.34 1276.5 1723.44 1277.53 C 1723.93 1278.14 1724.05 1298.8 1724.72 1302.54 z M 984.099 1365.19 C 983.615 1381.27 983.985 1399.4 984.036 1415.64 C 1002.6 1425.89 1020.87 1436.59 1039.63 1446.41 C 1047.27 1450.41 1056.08 1456.09 1063.8 1459.44 L 1064.45 1459.78 C 1066.44 1461.34 1067.6 1462.12 1069.72 1463.49 C 1069.78 1463.52 1071.18 1463.98 1071.22 1464.08 C 1071.27 1464.2 1074.84 1466.27 1074.87 1465.38 C 1075.37 1449.77 1077.58 1424.1 1075.31 1409.19 C 1075.05 1409.04 1074.79 1408.89 1074.53 1408.74 L 1030.47 1384.06 C 1026.19 1381.7 1012.34 1373.94 1008.38 1372.38 C 1004.42 1369.94 995.291 1364.83 991.002 1362.89 C 985.34 1359.3 983.312 1357.33 984.099 1365.19 z M 833.705 1335.11 C 835.428 1335.61 836.944 1336.03 838.627 1336.66 C 845.81 1328.6 829.483 1321.4 833.705 1335.11 z M 1724.14 852.97 L 1724.79 850.619 L 1722.95 850.635 C 1716.25 850.578 1713 855.194 1724.14 852.97 z M 412.821 1050.28 C 409.721 1048.94 395.983 1040.53 394.2 1041.17 C 393.823 1042.04 393.569 1047.33 393.459 1048.61 C 392.752 1062.02 393.12 1083.62 393.408 1097.22 C 421.619 1112.64 451.456 1128.25 480.009 1143.3 C 481.159 1144.07 483.405 1146.31 484.945 1145.64 C 485.872 1144.14 485.944 1094.25 485.339 1089.25 C 477.493 1084.4 469.189 1080.4 461.332 1075.74 C 460.547 1075.38 459.763 1075.01 458.978 1074.64 C 447.355 1068.36 428.479 1057.42 417.036 1052.36 C 415.596 1050.88 414.897 1050.88 412.821 1050.28 z M 989.964 1227.24 C 989.184 1226.61 988.811 1226.35 987.958 1225.83 C 981.505 1233.6 988.428 1231.9 990.491 1233.26 C 991.165 1232.4 990.137 1228.38 989.964 1227.24 z M 515.189 840.989 C 509.275 845.686 513.274 848.822 520.178 843.783 C 518.532 842.821 516.869 841.89 515.189 840.989 z M 953.618 1132.52 C 954.715 1133.23 955.774 1133.8 956.91 1134.43 C 957.535 1125.18 950.426 1119.46 953.618 1132.52 z M 634.121 1168.64 C 633.678 1170.36 629.256 1177.06 636.512 1175.84 C 637.992 1175.59 638.619 1173.25 638.713 1171.82 C 636.878 1170.67 635.84 1169.92 634.121 1168.64 z M 515.545 1104.37 C 512.579 1103.08 512.028 1102.24 509.269 1102.55 C 507.908 1112.66 508.856 1147.38 508.898 1158.91 C 518.551 1163.93 602.304 1209.61 604.582 1209.64 C 604.998 1208.34 605.179 1208.14 605.274 1206.79 C 605.46 1203.57 605.571 1201.27 605.438 1198.02 C 605.121 1183.45 605.189 1168.88 605.644 1154.32 C 582.079 1141.05 544.09 1118.13 520.35 1107.4 L 515.545 1104.37 z M 1070.83 1324.28 C 1071.36 1323.21 1070.99 1321.91 1069.98 1321.28 C 1068.96 1320.65 1067.63 1320.89 1066.9 1321.83 C 1066.36 1322.54 1066.27 1323.48 1066.66 1324.28 C 1067.05 1325.08 1067.86 1325.58 1068.75 1325.58 C 1069.63 1325.58 1070.44 1325.08 1070.83 1324.28 z"/>
<path transform="translate(0,0)" fill="#1f2a34" d="M 340.405 593.569 C 354.085 573.389 366.838 569.36 387.777 558.08 C 407.419 547.483 427.163 537.076 447.007 526.862 L 595.037 448.346 L 842.599 316.269 L 915.42 277.689 C 939.469 265 963.526 248.805 990.359 243.3 C 1025.9 236.008 1047.33 248.121 1077.32 263.853 L 1133.41 293.269 L 1331.35 396.661 L 1627.55 550.334 L 1706.88 591.515 C 1734.78 605.79 1762.9 614.979 1778.32 643.749 C 1772.17 652.725 1762.33 663.489 1752.88 668.957 C 1722.06 686.784 1690.49 704.075 1659.37 721.34 L 1470.24 825.805 L 1246.45 950.158 C 1222.16 963.348 1176.45 992.664 1152.76 996.844 C 1134.74 999.989 1116.2 998.032 1099.24 991.196 C 1083.88 984.844 1064.24 973.747 1049.21 965.76 L 974.52 926.316 L 712.237 787.93 L 454.642 653.473 C 424.299 637.671 394.365 621.181 363.663 606.067 C 356.435 602.509 346.907 598.091 340.405 593.569 z"/>
<path transform="translate(0,0)" fill="#3fb6a8" d="M 1021.59 452.419 C 1021.79 452.391 1021.99 452.363 1022.19 452.334 C 1097.61 448.789 1177.64 464.21 1237.7 512.321 C 1290.83 554.882 1305.07 625.259 1258.47 678.434 C 1209.38 734.436 1135.71 752.869 1064.37 758.849 C 984.949 760.976 905.017 746.926 842.967 694.712 C 773.871 636.569 788.908 549.196 860.824 502.204 C 911.245 469.257 962.819 456.373 1021.59 452.419 z"/>
<path transform="translate(0,0)" fill="#3fb6a8" d="M 340.405 593.569 C 346.907 598.091 356.435 602.509 363.663 606.067 C 394.365 621.181 424.299 637.671 454.642 653.473 L 712.237 787.93 L 974.52 926.316 L 1049.21 965.76 C 1064.24 973.747 1083.88 984.844 1099.24 991.196 C 1116.2 998.032 1134.74 999.989 1152.76 996.844 C 1176.45 992.664 1222.16 963.348 1246.45 950.158 L 1470.24 825.805 L 1659.37 721.34 C 1690.49 704.075 1722.06 686.784 1752.88 668.957 C 1762.33 663.489 1772.17 652.725 1778.32 643.749 C 1787.03 668.363 1783.99 704.449 1783.8 731.936 C 1756.74 749.76 1712.72 771.934 1682.88 788.264 L 1513.39 882.022 L 1267.21 1017.82 L 1210.05 1049.24 C 1199.9 1054.89 1186.35 1062.94 1176.07 1067.87 C 1155.04 1077.85 1131.04 1079.57 1108.8 1072.69 C 1088.96 1066.75 1058.18 1047.72 1039.07 1037.64 C 1012.35 1023.55 985.413 1009.22 958.672 995.093 L 508.748 755.934 L 382.299 688.754 C 367.894 681.042 344.327 665.763 330.012 661.05 C 329.899 633.363 326.506 617.94 340.405 593.569 z"/>
<path transform="translate(0,0)" fill="#1f2a34" d="M 421.355 1587.29 L 483.62 1619.34 C 513.864 1634.89 545.686 1655.88 582.465 1640.74 C 605.27 1631.35 626.966 1615.9 649.142 1604.81 C 681.322 1585.75 723.611 1566.17 753.633 1545.81 C 790.602 1569.13 839.344 1594.35 878.308 1616.86 C 848.983 1631.75 814.034 1654.54 784.829 1671.24 C 706.544 1716.01 629.843 1763.21 551.209 1807.52 C 462.599 1760.11 373.591 1713.44 284.194 1667.53 C 296.184 1661.34 310.821 1652.3 322.756 1645.46 C 355.902 1626.55 388.772 1607.16 421.355 1587.29 z"/>
<path transform="translate(0,0)" fill="#3fb6a8" d="M 880.253 1423.1 L 879.852 1444.16 C 879.209 1463.67 882.347 1610.12 878.308 1616.86 C 839.344 1594.35 790.602 1569.13 753.633 1545.81 C 723.611 1566.17 681.322 1585.75 649.142 1604.81 C 626.966 1615.9 605.27 1631.35 582.465 1640.74 C 545.686 1655.88 513.864 1634.89 483.62 1619.34 L 421.355 1587.29 C 387.771 1568.97 355.264 1551.6 321.16 1534.15 C 306.09 1526.43 281.303 1514.68 267.658 1506.05 C 267.512 1485.5 267.954 1478.81 278.464 1460.95 C 298.144 1469.79 329.437 1487.69 349.187 1498.33 L 464.547 1560.12 C 496.759 1577.46 538.749 1608.42 577.958 1593.86 C 596.104 1587.13 618.695 1571.35 636.455 1561.72 C 718.526 1517.26 798.13 1467.44 880.253 1423.1 z"/>
<path transform="translate(0,0)" fill="#e8ede9" d="M 1722.92 986.813 L 1724.02 987.411 C 1725.86 993.239 1724.99 1046.53 1725.02 1056.17 C 1701.92 1069.91 1675.58 1083.88 1651.96 1097.28 C 1581.19 1137.56 1510.13 1177.33 1438.79 1216.59 L 1288.77 1300.78 C 1266.08 1313.52 1242.38 1327.7 1219.56 1339.67 L 1218.87 1339.64 C 1217.2 1337.11 1217.61 1277.71 1217.57 1269.95 L 1722.92 986.813 z"/>
<path transform="translate(0,0)" fill="#e8ede9" d="M 1716.62 1273.71 C 1718.75 1280.38 1720.34 1276.5 1723.44 1277.53 C 1723.93 1278.14 1724.05 1298.8 1724.72 1302.54 L 1724.93 1340.86 C 1707.97 1350.54 1690.44 1359.61 1673.39 1369.24 L 1218.35 1624.28 C 1217.36 1602.47 1217.9 1576.48 1217.57 1554.25 L 1535.2 1375.82 C 1595.9 1342.19 1656.38 1308.16 1716.62 1273.71 z"/>
<path transform="translate(0,0)" fill="#e8ede9" d="M 1723.01 1128.96 L 1723.74 1129.69 C 1725.59 1137.05 1724.67 1188.18 1724.6 1198.64 C 1669.13 1228.64 1614.03 1259.33 1559.31 1290.69 L 1219.55 1479.84 L 1218.1 1479.05 C 1217.05 1460.03 1217.73 1432.66 1217.65 1413.06 C 1238.28 1400.36 1262.23 1388.12 1283.66 1376.03 C 1327.81 1350.63 1372.18 1325.6 1416.77 1300.96 L 1723.01 1128.96 z"/>
<path transform="translate(0,0)" fill="#e8ede9" d="M 1217.59 1131.11 L 1573.78 930.67 L 1688.98 865.561 C 1695.79 861.758 1718.26 846.623 1723.93 847.4 L 1724.79 850.619 L 1722.95 850.635 C 1716.25 850.578 1713 855.194 1724.14 852.97 C 1724.91 872.209 1724.36 896.238 1724.39 915.83 C 1703.85 928.467 1678.28 942.115 1656.92 954.053 L 1537.36 1020.84 L 1326.19 1138.23 C 1289.79 1158.37 1254.66 1178.43 1217.91 1198.11 L 1217.59 1131.11 z"/>
<path transform="translate(0,0)" fill="#e8ede9" fill-opacity="0.964706" d="M 421.872 1197.41 C 442.393 1206.81 470.098 1223.11 490.265 1234.15 C 507.593 1243.64 533.914 1257.27 550.134 1267.57 C 548.354 1271.48 556.026 1271.38 557.418 1273.93 C 557.212 1274.1 556.883 1273.94 556.616 1273.94 C 556.369 1273.93 556.419 1273.91 556.297 1274.01 C 557.637 1275.14 572.789 1278.31 562.593 1282.62 C 561.2 1283.21 561.145 1282.69 559.638 1283.65 L 559.683 1283.37 L 559.559 1283.49 C 560.116 1284.25 561.768 1283.88 562.624 1284.5 L 562.508 1285.17 C 559.81 1286.94 556.641 1288.35 553.834 1290.03 C 553.598 1290.17 553.098 1290.4 552.976 1290.72 C 553.046 1291.16 553.552 1291.44 553.924 1291.78 C 543.733 1298.77 531.161 1306.08 520.302 1312.33 C 491.371 1328.97 462.189 1348.19 432.731 1363.56 C 433.181 1362.99 441.658 1354.51 436.473 1353.15 C 430.436 1351.56 426.71 1359.76 423.252 1361.68 L 421.596 1362.59 C 422.289 1344.72 421.874 1323.86 421.906 1305.71 L 421.872 1197.41 z M 429.558 1206.59 C 429.988 1201.9 427.4 1202.65 423.413 1202.93 L 423.397 1204.11 C 423.391 1204.25 423.386 1204.38 423.38 1204.52 C 423.385 1205.26 423.739 1205.95 424.335 1206.38 C 425.461 1207.22 428.297 1206.71 429.558 1206.59 z"/>
<path transform="translate(0,0)" fill="#e8ede9" fill-opacity="0.658824" d="M 423.413 1202.93 C 427.4 1202.65 429.988 1201.9 429.558 1206.59 C 428.297 1206.71 425.461 1207.22 424.335 1206.38 C 423.739 1205.95 423.385 1205.26 423.38 1204.52 C 423.386 1204.38 423.391 1204.25 423.397 1204.11 L 423.413 1202.93 z"/>
<path transform="translate(0,0)" fill="#e8ede9" d="M 509.519 895.728 C 509.304 882.424 508.214 851.168 509.46 839.112 L 510.623 838.618 L 515.189 840.989 C 509.275 845.686 513.274 848.822 520.178 843.783 C 547.976 860.21 577.313 874.326 605.425 890.143 C 605.668 909.388 605.734 928.635 605.623 947.881 C 580.668 936.235 533.322 910.109 509.519 895.728 z M 603.397 942.418 L 603.022 941.152 C 602.063 937.436 598.887 937.441 595.608 937.15 C 595.785 941.365 599.743 941.521 603.397 942.418 z"/>
<path transform="translate(0,0)" fill="#e8ede9" fill-opacity="0.839216" d="M 595.608 937.15 C 598.887 937.441 602.063 937.436 603.022 941.152 L 603.397 942.418 C 599.743 941.521 595.785 941.365 595.608 937.15 z"/>
<path transform="translate(0,0)" fill="#e8ede9" d="M 630.341 1224.6 C 630.323 1217.2 629.454 1171.76 630.98 1168.26 L 634.121 1168.64 C 633.678 1170.36 629.256 1177.06 636.512 1175.84 C 637.992 1175.59 638.619 1173.25 638.713 1171.82 C 661.122 1182.35 704.027 1206.42 725.312 1219.28 C 726.081 1237.92 725.88 1257.43 725.954 1276.15 C 694.029 1259.98 662.285 1241 630.341 1224.6 z M 724.582 1270.24 L 723.478 1268.72 C 720.824 1264.97 718.59 1265.09 714.32 1265.09 C 717.51 1268.96 719.131 1269.6 723.963 1270.17 L 724.582 1270.24 z"/>
<path transform="translate(0,0)" fill="#e8ede9" fill-opacity="0.764706" d="M 714.32 1265.09 C 718.59 1265.09 720.824 1264.97 723.478 1268.72 L 724.582 1270.24 L 723.963 1270.17 C 719.131 1269.6 717.51 1268.96 714.32 1265.09 z"/>
<path transform="translate(0,0)" fill="#e8ede9" fill-opacity="0.984314" d="M 630.676 959.991 C 630.557 952.22 629.072 908.797 631.368 904.62 L 634.078 904.994 C 633.359 906.507 631.022 910.47 632.041 910.976 C 635.6 912.744 633.695 918.616 635.199 919.606 C 636.658 919.361 635.238 911.992 637.513 911.052 C 639.219 911.805 640.437 918.357 643.495 915.484 C 641.017 913.186 639.791 911.938 639.322 908.481 C 664.145 920.191 701.693 940.853 725.958 954.324 L 725.9 1012.05 C 699.958 999.402 655.247 974.983 630.676 959.991 z M 723.512 1006.92 C 723.197 1001.39 721.946 1000.63 716.185 1000.11 L 715.057 999.995 C 715.409 1004.95 718.833 1005.23 723.512 1006.92 z"/>
<path transform="translate(0,0)" fill="#e8ede9" fill-opacity="0.847059" d="M 715.057 999.995 L 716.185 1000.11 C 721.946 1000.63 723.197 1001.39 723.512 1006.92 C 718.833 1005.23 715.409 1004.95 715.057 999.995 z"/>
<path transform="translate(0,0)" fill="#e8ede9" fill-opacity="0.984314" d="M 509.178 1027.66 C 509.041 1015.81 508.111 980.93 509.89 971.229 C 510.071 972.593 510.18 977.83 510.755 978.454 C 511.443 978.429 512.202 977.839 512.802 977.56 C 513.836 986.162 521.248 983.655 520.066 979.531 C 521.02 978.123 521.103 978.234 521.041 976.708 L 538.212 985.928 L 536.191 986.023 C 519.091 986.735 538.089 1000.77 541.07 987.37 C 558.61 998.253 586.899 1012.33 605.565 1022.21 C 605.765 1041.37 605.734 1060.53 605.472 1079.69 C 573.089 1062.88 540.986 1045.54 509.178 1027.66 z M 602.067 1076.94 C 606.346 1073.6 601.309 1064.4 593.931 1062.38 C 586.515 1069.78 593.934 1068.38 602.067 1076.94 z"/>
<path transform="translate(0,0)" fill="#e8ede9" fill-opacity="0.745098" d="M 593.931 1062.38 C 601.309 1064.4 606.346 1073.6 602.067 1076.94 C 593.934 1068.38 586.515 1069.78 593.931 1062.38 z"/>
<path transform="translate(0,0)" fill="#e8ede9" fill-opacity="0.976471" d="M 630.087 1035.22 C 634.204 1036.87 639.574 1039.95 643.524 1042.11 C 670.599 1056.86 698.93 1070.48 725.427 1086.21 C 725.209 1105.04 725.674 1123.69 725.157 1142.61 C 695.821 1125.56 661.022 1108.72 630.512 1092.06 C 630.017 1073.44 630.196 1053.91 630.087 1035.22 z M 711.914 1131.4 C 715.801 1134.08 716.745 1134.52 721.09 1136.29 C 721.395 1137.22 721.246 1136.95 721.497 1137.29 C 724.673 1136.3 721.451 1123.11 718.851 1120.43 C 718.786 1120.43 709.412 1124.21 709.17 1124.74 C 707.724 1127.93 708.734 1130.02 711.914 1131.4 z M 637.622 1045.75 C 639.159 1043.75 638.596 1043.62 636.368 1043.12 C 635.787 1043.01 635.206 1042.89 634.627 1042.77 C 634.402 1046.3 634.171 1047.06 637.622 1045.75 z"/>
<path transform="translate(0,0)" fill="#e8ede9" fill-opacity="0.815686" d="M 711.914 1131.4 C 708.734 1130.02 707.724 1127.93 709.17 1124.74 C 709.412 1124.21 718.786 1120.43 718.851 1120.43 C 721.451 1123.11 724.673 1136.3 721.497 1137.29 C 721.246 1136.95 721.395 1137.22 721.09 1136.29 C 721.467 1130.44 716.323 1130.68 711.914 1131.4 z"/>
<path transform="translate(0,0)" fill="#e8ede9" fill-opacity="0.623529" d="M 711.914 1131.4 C 716.323 1130.68 721.467 1130.44 721.09 1136.29 C 716.745 1134.52 715.801 1134.08 711.914 1131.4 z"/>
<path transform="translate(0,0)" fill="#e8ede9" fill-opacity="0.878431" d="M 634.627 1042.77 C 635.206 1042.89 635.787 1043.01 636.368 1043.12 C 638.596 1043.62 639.159 1043.75 637.622 1045.75 C 634.171 1047.06 634.402 1046.3 634.627 1042.77 z"/>
<path transform="translate(0,0)" fill="#e8ede9" d="M 748.795 1098.56 C 780.094 1114.23 812.305 1132.43 843.385 1148.99 C 843.715 1166.61 843.879 1187.04 843.14 1204.49 C 835.739 1204.16 759.557 1160.79 749.071 1154.37 C 748.874 1135.77 748.782 1117.17 748.795 1098.56 z M 839.412 1199.61 C 838.009 1194.04 837.845 1194.09 832.146 1194.01 C 832.904 1197.54 833.885 1197.7 837.363 1198.89 L 839.412 1199.61 z M 759.762 1110.5 C 760.599 1109.52 760.484 1108.04 759.505 1107.21 C 758.525 1106.37 757.053 1106.48 756.215 1107.46 C 755.376 1108.44 755.491 1109.92 756.471 1110.75 C 757.451 1111.59 758.925 1111.48 759.762 1110.5 z"/>
<path transform="translate(0,0)" fill="#e8ede9" fill-opacity="0.513725" d="M 832.146 1194.01 C 837.845 1194.09 838.009 1194.04 839.412 1199.61 L 837.363 1198.89 C 833.885 1197.7 832.904 1197.54 832.146 1194.01 z"/>
<path transform="translate(0,0)" fill="#e8ede9" fill-opacity="0.929412" d="M 756.215 1107.46 C 757.053 1106.48 758.525 1106.37 759.505 1107.21 C 760.484 1108.04 760.599 1109.52 759.762 1110.5 C 758.925 1111.48 757.451 1111.59 756.471 1110.75 C 755.491 1109.92 755.376 1108.44 756.215 1107.46 z"/>
<path transform="translate(0,0)" fill="#e8ede9" d="M 749.029 967.101 C 756.939 970.441 773.158 979.634 781.464 984.083 C 801.906 995.137 822.408 1006.08 842.968 1016.92 L 842.923 1074.56 C 817.162 1061.71 772.992 1037.64 749.254 1022.52 L 749.029 967.101 z M 840.448 1070.77 L 840.193 1069.14 C 839.594 1064.78 837.58 1064.89 833.489 1063.94 C 833.847 1069.69 835.229 1069.45 840.448 1070.77 z"/>
<path transform="translate(0,0)" fill="#e8ede9" fill-opacity="0.501961" d="M 833.489 1063.94 C 837.58 1064.89 839.594 1064.78 840.193 1069.14 L 840.448 1070.77 C 835.229 1069.45 833.847 1069.69 833.489 1063.94 z"/>
<path transform="translate(0,0)" fill="#e8ede9" d="M 867.067 1160.47 C 897.115 1176.37 930.813 1194.86 960.182 1211.89 L 960.083 1267.78 C 933.275 1255.46 892.841 1232.75 867.154 1218.01 L 867.067 1160.47 z M 958.09 1262.25 C 959.281 1260.52 958.862 1258.16 957.151 1256.95 C 955.439 1255.74 953.073 1256.13 951.844 1257.83 C 951.036 1258.95 950.891 1260.41 951.462 1261.66 C 952.034 1262.92 953.234 1263.76 954.606 1263.89 C 955.977 1264.01 957.308 1263.38 958.09 1262.25 z"/>
<path transform="translate(0,0)" fill="#e8ede9" fill-opacity="0.372549" d="M 951.844 1257.83 C 953.073 1256.13 955.439 1255.74 957.151 1256.95 C 958.862 1258.16 959.281 1260.52 958.09 1262.25 C 957.308 1263.38 955.977 1264.01 954.606 1263.89 C 953.234 1263.76 952.034 1262.92 951.462 1261.66 C 950.891 1260.41 951.036 1258.95 951.844 1257.83 z"/>
<path transform="translate(0,0)" fill="#e8ede9" d="M 759.242 1237.43 C 769.375 1241.68 786.234 1251.22 796.126 1256.74 C 811.572 1265.38 828.179 1273.96 843.409 1282.76 C 843.472 1297.4 844.457 1324.6 843.107 1338.45 L 841.956 1339.41 C 839.044 1338.83 839.155 1339.01 837.123 1336.89 L 838.627 1336.66 C 845.81 1328.6 829.483 1321.4 833.705 1335.11 C 826.433 1332.12 810.988 1323.12 803.445 1319.07 C 785.414 1309.37 766.815 1299.44 749.386 1288.78 C 750.542 1282.01 749.27 1240.23 750.563 1238.8 C 752.859 1238.55 755.259 1241.55 758.033 1238.7 L 759.242 1237.43 z"/>
<path transform="translate(0,0)" fill="#e8ede9" fill-opacity="0.964706" d="M 508.898 1158.91 C 508.856 1147.38 507.908 1112.66 509.269 1102.55 C 512.028 1102.24 512.579 1103.08 515.545 1104.37 L 513.792 1105.2 C 503.743 1109.27 514.263 1115.79 520.35 1107.4 C 544.09 1118.13 582.079 1141.05 605.644 1154.32 C 605.189 1168.88 605.121 1183.45 605.438 1198.02 C 604.99 1199.52 605.088 1199.94 604.356 1201.13 C 600.456 1200.79 601.997 1191.34 600.499 1189.98 C 593.952 1191.82 596.086 1190.36 593.536 1188.6 C 590.049 1192.48 589.109 1192.3 584.616 1194.96 C 586.732 1196.46 590.796 1199.59 592.857 1200.51 L 595.997 1202.96 C 598.45 1204.86 599.964 1205.46 602.94 1206 L 605.274 1206.79 C 605.179 1208.14 604.998 1208.34 604.582 1209.64 C 602.304 1209.61 518.551 1163.93 508.898 1158.91 z"/>
<path transform="translate(0,0)" fill="#e8ede9" d="M 867.231 1029.37 C 886.015 1038.88 904.601 1048.79 922.974 1059.07 C 934.885 1065.61 949.005 1072.95 960.184 1080.31 C 960.31 1088.96 961.75 1129.34 959.352 1134.53 C 957.216 1134.61 958 1134.83 956.91 1134.43 C 957.535 1125.18 950.426 1119.46 953.618 1132.52 C 931.86 1121.37 886.578 1098.73 867.375 1085.9 C 867.166 1067.06 867.118 1048.21 867.231 1029.37 z"/>
<path transform="translate(0,0)" fill="#e8ede9" d="M 983.967 1280.5 C 983.717 1262.89 982.891 1242.83 983.413 1225.42 L 984.383 1224.52 L 987.958 1225.83 C 981.505 1233.6 988.428 1231.9 990.491 1233.26 C 991.165 1232.4 990.137 1228.38 989.964 1227.24 C 1018.48 1241.78 1047.66 1258.23 1075.8 1273.64 C 1075.13 1292.18 1075.35 1312.5 1075.18 1331.19 C 1045.42 1313.48 1012.75 1297.97 983.967 1280.5 z M 1070.83 1324.28 C 1071.36 1323.21 1070.99 1321.91 1069.98 1321.28 C 1068.96 1320.65 1067.63 1320.89 1066.9 1321.83 C 1066.36 1322.54 1066.27 1323.48 1066.66 1324.28 C 1067.05 1325.08 1067.86 1325.58 1068.75 1325.58 C 1069.63 1325.58 1070.44 1325.08 1070.83 1324.28 z"/>
<path transform="translate(0,0)" fill="#e8ede9" fill-opacity="0.780392" d="M 1066.9 1321.83 C 1067.63 1320.89 1068.96 1320.65 1069.98 1321.28 C 1070.99 1321.91 1071.36 1323.21 1070.83 1324.28 C 1070.44 1325.08 1069.63 1325.58 1068.75 1325.58 C 1067.86 1325.58 1067.05 1325.08 1066.66 1324.28 C 1066.27 1323.48 1066.36 1322.54 1066.9 1321.83 z"/>
<path transform="translate(0,0)" fill="#e8ede9" d="M 983.728 1092.41 C 1012.14 1107.36 1049.22 1125.69 1075.71 1142.34 C 1075.87 1160.68 1075.77 1179.02 1075.41 1197.36 C 1071.48 1197.28 993.494 1154.01 984.237 1148.64 C 983.618 1130.56 983.876 1110.64 983.728 1092.41 z"/>
<path transform="translate(0,0)" fill="url(#Gradient1)" d="M 867.319 1294.76 L 925.195 1326.25 C 935.756 1332 947.707 1338.07 957.612 1344.87 C 961.01 1347.2 960.434 1348.33 960.693 1351.72 C 960.338 1351.4 959.984 1351.07 959.63 1350.74 C 956.23 1354.48 958.636 1372.88 958.123 1379.04 C 957.73 1377.42 956.466 1370.83 955.626 1370.02 C 955.354 1370.13 955.392 1370.07 955.253 1370.44 C 954.699 1371.92 955.401 1379.2 954.708 1379.52 C 954.385 1379.66 953.928 1379.66 953.63 1379.45 C 953.252 1379.2 953.227 1377.43 953.223 1377.39 C 953.133 1376.51 952.958 1375.47 952.228 1374.88 C 951.806 1374.53 950.888 1374.18 950.312 1374.23 C 950.058 1374.25 949.836 1374.34 949.672 1374.55 C 949.396 1374.92 949.438 1375.3 949.381 1375.74 C 949.171 1377.35 948.942 1378.96 948.752 1380.58 C 948.694 1381.08 948.511 1382.25 948.009 1382.51 C 947.622 1382.71 947.573 1382.64 947.148 1382.71 C 946.272 1382.84 945.44 1383.15 944.59 1383.39 C 943.409 1383.72 942.175 1383.78 940.964 1383.92 C 939.384 1384.1 936.116 1384.67 935.229 1386.2 C 934.971 1386.65 935.272 1387.26 935.536 1387.62 C 938.067 1391.03 945.782 1390.11 950.25 1394.74 L 951.703 1397.86 C 945.182 1396.88 878.994 1358.35 867.37 1352.34 C 867.069 1333.15 867.052 1313.95 867.319 1294.76 z"/>
<path transform="translate(0,0)" fill="#e8ede9" d="M 422.324 923.959 C 442.417 934.337 466.045 946.657 485.272 958.275 C 484.787 964.327 484.987 970.418 485.003 976.48 C 485.03 986.277 484.95 996.212 485.164 1005.99 C 485.261 1010.42 481.054 1006.43 479.009 1008.19 C 478.157 1008.92 480.144 1012.65 480.503 1013.62 C 453.249 1000.07 421.299 982.112 393.87 967.282 C 394.968 958.655 393.267 931.857 394.534 925.891 C 394.877 928.943 394.43 933.5 396.158 935.992 C 396.398 936.338 397.034 936.735 397.34 936.612 C 399.933 935.574 401.085 931.734 404.064 929.478 C 406.663 926.883 408.421 927.627 412.017 927.875 C 418.012 928.287 418.311 927.871 422.324 923.959 z M 416.006 973.173 L 415.891 971.883 C 415.619 967.811 410.614 968.136 407.633 967.897 C 409.072 973.273 410.657 973.056 416.006 973.173 z M 398.085 964.514 C 398.982 963.221 399.605 962.069 397.395 962.293 C 396.743 962.98 395.941 963.554 395.919 964.493 C 396.355 965.208 397.534 964.648 398.085 964.514 z"/>
<path transform="translate(0,0)" fill="#e8ede9" fill-opacity="0.933333" d="M 407.633 967.897 C 410.614 968.136 415.619 967.811 415.891 971.883 L 416.006 973.173 C 410.657 973.056 409.072 973.273 407.633 967.897 z"/>
<path transform="translate(0,0)" fill="#e8ede9" fill-opacity="0.796078" d="M 397.395 962.293 C 399.605 962.069 398.982 963.221 398.085 964.514 C 397.534 964.648 396.355 965.208 395.919 964.493 C 395.941 963.554 396.743 962.98 397.395 962.293 z"/>
<path transform="translate(0,0)" fill="#e8ede9" fill-opacity="0.984314" d="M 424.66 795.694 C 441.622 804.114 469.554 819.161 485.218 828.963 C 485.3 847.589 485.67 867.044 485.311 885.607 C 454.787 869.189 423.817 854.031 393.861 836.439 C 393.815 828.055 393.327 814.154 393.861 806.098 C 394.231 802.994 394.166 799.922 394.506 797.058 C 394.77 798.533 393.953 817.969 400.38 807.351 C 401.668 804.39 406.909 802.94 409.968 802.46 C 415.948 801.52 422.26 801.977 424.66 795.694 z M 482.577 880.161 L 482.148 878.509 C 480.71 872.537 477.105 873.944 471.672 874.117 C 475.45 877.841 477.319 878.796 482.577 880.161 z"/>
<path transform="translate(0,0)" fill="#e8ede9" fill-opacity="0.6" d="M 471.672 874.117 C 477.105 873.944 480.71 872.537 482.148 878.509 L 482.577 880.161 C 477.319 878.796 475.45 877.841 471.672 874.117 z"/>
<path transform="translate(0,0)" fill="#e8ede9" fill-opacity="0.984314" d="M 393.408 1097.22 C 393.12 1083.62 392.752 1062.02 393.459 1048.61 C 397.637 1059.33 396.868 1055.54 409.48 1055.97 C 410.207 1056.04 410.936 1056.09 411.665 1056.12 C 419.372 1056.42 415.731 1065.12 424.009 1063.15 C 434.132 1060.73 420.54 1059.95 417.036 1052.36 C 428.479 1057.42 447.355 1068.36 458.978 1074.64 C 456.846 1074.76 447.769 1073.5 449.978 1076.98 C 452.463 1080.91 459.188 1080.93 461.332 1075.74 C 469.189 1080.4 477.493 1084.4 485.339 1089.25 C 483.424 1104.02 485.815 1124.29 484.039 1141.07 C 482.94 1136.37 481.969 1128.39 479.728 1124.09 C 479.321 1123.31 475.313 1127.17 473.537 1125.51 C 473.379 1125.47 473.221 1125.42 473.063 1125.38 C 472.956 1124.68 472.936 1123.85 472.557 1123.22 L 472.374 1123.22 C 471.919 1123.7 466.978 1130.48 466.677 1131.09 C 465.905 1132.65 474.192 1136.83 475.19 1137.28 C 477.244 1138.86 479.212 1140.48 481.408 1141.86 L 480.009 1143.3 C 451.456 1128.25 421.619 1112.64 393.408 1097.22 z M 400.709 1097.08 L 400.405 1095.87 C 399.237 1091.13 400.358 1089.68 395.94 1088.43 L 395.895 1090.4 C 395.664 1095.33 396.277 1095.19 400.709 1097.08 z"/>
<path transform="translate(0,0)" fill="#e8ede9" fill-opacity="0.898039" d="M 395.94 1088.43 C 400.358 1089.68 399.237 1091.13 400.405 1095.87 L 400.709 1097.08 C 396.277 1095.19 395.664 1095.33 395.895 1090.4 L 395.94 1088.43 z"/>
<path transform="translate(0,0)" fill="#e8ede9" fill-opacity="0.972549" d="M 984.099 1365.19 L 984.659 1367.61 C 985.709 1373.36 984.905 1385.15 993.026 1379 C 1000.12 1373.63 1002.87 1380.54 1008.38 1372.38 C 1012.34 1373.94 1026.19 1381.7 1030.47 1384.06 L 1074.53 1408.74 C 1074.79 1408.89 1075.05 1409.04 1075.31 1409.19 C 1074.81 1413.97 1075.04 1451.6 1074.36 1452.21 C 1064.67 1442.58 1066.95 1444.26 1053.95 1450.45 C 1059.92 1454.51 1060.59 1453.73 1063.8 1459.44 C 1056.08 1456.09 1047.27 1450.41 1039.63 1446.41 C 1020.87 1436.59 1002.6 1425.89 984.036 1415.64 C 983.985 1399.4 983.615 1381.27 984.099 1365.19 z"/>
<path transform="translate(0,0)" fill="#e8ede9" fill-opacity="0.8" d="M 393.861 806.098 C 393.115 800.083 393.128 786.328 393.603 779.995 C 393.864 784.745 393.868 789.056 394.189 793.929 C 400.186 792.059 405.106 790.433 411.022 788.438 C 414.193 789.696 421.631 793.885 424.66 795.694 C 422.26 801.977 415.948 801.52 409.968 802.46 C 406.909 802.94 401.668 804.39 400.38 807.351 C 393.953 817.969 394.77 798.533 394.506 797.058 C 394.166 799.922 394.231 802.994 393.861 806.098 z"/>
<path transform="translate(0,0)" fill="#e8ede9" fill-opacity="0.87451" d="M 393.87 967.282 C 390.731 954.515 394.516 923.749 393.421 909.439 C 393.322 908.138 397.343 910.276 398.582 911.168 C 394.526 911.94 391.592 914.045 393.902 919.092 C 395.513 922.612 404.453 921.666 401.503 912.895 C 407.162 915.271 416.971 920.701 422.324 923.959 C 418.311 927.871 418.012 928.287 412.017 927.875 C 408.421 927.627 406.663 926.883 404.064 929.478 C 401.085 931.734 399.933 935.574 397.34 936.612 C 397.034 936.735 396.398 936.338 396.158 935.992 C 394.43 933.5 394.877 928.943 394.534 925.891 C 393.267 931.857 394.968 958.655 393.87 967.282 z"/>
<path transform="translate(0,0)" fill="#e8ede9" fill-opacity="0.866667" d="M 1075.31 1409.19 C 1077.58 1424.1 1075.37 1449.77 1074.87 1465.38 C 1074.84 1466.27 1071.27 1464.2 1071.22 1464.08 C 1071.18 1463.98 1069.78 1463.52 1069.72 1463.49 C 1075.14 1459.02 1066.63 1453.29 1064.45 1459.78 L 1063.8 1459.44 C 1060.59 1453.73 1059.92 1454.51 1053.95 1450.45 C 1066.95 1444.26 1064.67 1442.58 1074.36 1452.21 C 1075.04 1451.6 1074.81 1413.97 1075.31 1409.19 z"/>
<path transform="translate(0,0)" fill="#e8ede9" fill-opacity="0.815686" d="M 485.339 1089.25 C 485.944 1094.25 485.872 1144.14 484.945 1145.64 C 483.405 1146.31 481.159 1144.07 480.009 1143.3 L 481.408 1141.86 C 485.684 1138.56 479.387 1135.31 475.19 1137.28 C 474.192 1136.83 465.905 1132.65 466.677 1131.09 C 466.978 1130.48 471.919 1123.7 472.374 1123.22 L 472.557 1123.22 C 472.936 1123.85 472.956 1124.68 473.063 1125.38 C 473.221 1125.42 473.379 1125.47 473.537 1125.51 C 475.313 1127.17 479.321 1123.31 479.728 1124.09 C 481.969 1128.39 482.94 1136.37 484.039 1141.07 C 485.815 1124.29 483.424 1104.02 485.339 1089.25 z"/>
<path transform="translate(0,0)" fill="#e8ede9" fill-opacity="0.878431" d="M 950.25 1394.74 C 945.782 1390.11 938.067 1391.03 935.536 1387.62 C 935.272 1387.26 934.971 1386.65 935.229 1386.2 C 936.116 1384.67 939.384 1384.1 940.964 1383.92 C 942.175 1383.78 943.409 1383.72 944.59 1383.39 C 945.44 1383.15 946.272 1382.84 947.148 1382.71 C 947.573 1382.64 947.622 1382.71 948.009 1382.51 C 948.511 1382.25 948.694 1381.08 948.752 1380.58 C 948.942 1378.96 949.171 1377.35 949.381 1375.74 C 949.438 1375.3 949.396 1374.92 949.672 1374.55 C 949.836 1374.34 950.058 1374.25 950.312 1374.23 C 950.888 1374.18 951.806 1374.53 952.228 1374.88 C 952.958 1375.47 953.133 1376.51 953.223 1377.39 C 953.227 1377.43 953.252 1379.2 953.63 1379.45 C 953.928 1379.66 954.385 1379.66 954.708 1379.52 C 955.401 1379.2 954.699 1371.92 955.253 1370.44 C 955.392 1370.07 955.354 1370.13 955.626 1370.02 C 956.466 1370.83 957.73 1377.42 958.123 1379.04 C 958.195 1382.4 958.75 1384.45 957.971 1387.73 C 953.573 1385.77 951.587 1388.41 950.786 1392.31 C 950.615 1393.12 950.437 1393.93 950.25 1394.74 z"/>
<path transform="translate(0,0)" fill="#e8ede9" fill-opacity="0.819608" d="M 991.002 1362.89 C 995.291 1364.83 1004.42 1369.94 1008.38 1372.38 C 1002.87 1380.54 1000.12 1373.63 993.026 1379 C 984.905 1385.15 985.709 1373.36 984.659 1367.61 C 991.466 1373.12 992.074 1370.49 991.002 1362.89 z"/>
<path transform="translate(0,0)" fill="#e8ede9" fill-opacity="0.129412" d="M 393.459 1048.61 C 393.569 1047.33 393.823 1042.04 394.2 1041.17 C 395.983 1040.53 409.721 1048.94 412.821 1050.28 C 412.425 1054.8 413.571 1053.91 409.48 1055.97 C 396.868 1055.54 397.637 1059.33 393.459 1048.61 z"/>
<path transform="translate(0,0)" fill="#e8ede9" fill-opacity="0.803922" d="M 584.616 1194.96 C 589.109 1192.3 590.049 1192.48 593.536 1188.6 C 596.086 1190.36 593.952 1191.82 600.499 1189.98 C 601.997 1191.34 600.456 1200.79 604.356 1201.13 C 605.088 1199.94 604.99 1199.52 605.438 1198.02 C 605.571 1201.27 605.46 1203.57 605.274 1206.79 L 602.94 1206 C 602.736 1199.89 598.839 1199.93 592.857 1200.51 C 590.796 1199.59 586.732 1196.46 584.616 1194.96 z"/>
<path transform="translate(0,0)" fill="#e8ede9" fill-opacity="0.423529" d="M 421.596 1362.59 L 423.252 1361.68 C 426.71 1359.76 430.436 1351.56 436.473 1353.15 C 441.658 1354.51 433.181 1362.99 432.731 1363.56 C 428.906 1366.9 421.87 1372.38 421.666 1364.26 L 421.596 1362.59 z"/>
<path transform="translate(0,0)" fill="#e8ede9" fill-opacity="0.172549" d="M 393.603 779.995 L 395.261 780.638 C 401.176 782.804 405.497 786.037 411.022 788.438 C 405.106 790.433 400.186 792.059 394.189 793.929 C 393.868 789.056 393.864 784.745 393.603 779.995 z"/>
<path transform="translate(0,0)" fill="#e8ede9" fill-opacity="0.984314" d="M 958.123 1379.04 C 958.636 1372.88 956.23 1354.48 959.63 1350.74 C 959.984 1351.07 960.338 1351.4 960.693 1351.72 C 960.694 1356.94 961.28 1401.03 960.463 1401.93 C 959.936 1402.1 959.381 1401.87 958.773 1401.74 C 960.804 1394.64 959.997 1395.41 958.207 1388.66 L 957.971 1387.73 C 958.75 1384.45 958.195 1382.4 958.123 1379.04 z"/>
<path transform="translate(0,0)" fill="#e8ede9" d="M 550.134 1267.57 C 556.011 1270.17 567.879 1276.79 573.413 1280.07 C 569.209 1283.04 558.61 1289.85 553.924 1291.78 C 553.552 1291.44 553.046 1291.16 552.976 1290.72 C 553.098 1290.4 553.598 1290.17 553.834 1290.03 C 556.641 1288.35 559.81 1286.94 562.508 1285.17 L 562.624 1284.5 C 561.768 1283.88 560.116 1284.25 559.559 1283.49 L 559.683 1283.37 L 559.638 1283.65 C 561.145 1282.69 561.2 1283.21 562.593 1282.62 C 572.789 1278.31 557.637 1275.14 556.297 1274.01 C 556.419 1273.91 556.369 1273.93 556.616 1273.94 C 556.883 1273.94 557.212 1274.1 557.418 1273.93 C 556.026 1271.38 548.354 1271.48 550.134 1267.57 z"/>
<path transform="translate(0,0)" fill="#e8ede9" fill-opacity="0.027451" d="M 950.25 1394.74 C 950.437 1393.93 950.615 1393.12 950.786 1392.31 C 951.587 1388.41 953.573 1385.77 957.971 1387.73 L 958.207 1388.66 C 959.997 1395.41 960.804 1394.64 958.773 1401.74 L 957.369 1401.01 C 955.428 1400.03 953.556 1399 951.703 1397.86 L 950.25 1394.74 z"/>
<path transform="translate(0,0)" fill="#e8ede9" fill-opacity="0.854902" d="M 749.014 1231.51 C 752.739 1233.58 755.623 1235.06 759.242 1237.43 L 758.033 1238.7 C 755.259 1241.55 752.859 1238.55 750.563 1238.8 C 749.27 1240.23 750.542 1282.01 749.386 1288.78 C 748.39 1282.25 749.068 1241.15 749.014 1231.51 z"/>
<path transform="translate(0,0)" fill="#e8ede9" fill-opacity="0.921569" d="M 412.821 1050.28 C 414.897 1050.88 415.596 1050.88 417.036 1052.36 C 420.54 1059.95 434.132 1060.73 424.009 1063.15 C 415.731 1065.12 419.372 1056.42 411.665 1056.12 C 410.936 1056.09 410.207 1056.04 409.48 1055.97 C 413.571 1053.91 412.425 1054.8 412.821 1050.28 z"/>
<path transform="translate(0,0)" fill="#e8ede9" fill-opacity="0.74902" d="M 485.272 958.275 C 487.521 974.419 485.079 998.667 485.417 1015.33 C 485.421 1015.56 484.564 1015.64 484.331 1015.59 C 482.939 1015.25 481.724 1014.34 480.503 1013.62 C 480.144 1012.65 478.157 1008.92 479.009 1008.19 C 481.054 1006.43 485.261 1010.42 485.164 1005.99 C 484.95 996.212 485.03 986.277 485.003 976.48 C 484.987 970.418 484.787 964.327 485.272 958.275 z"/>
<path transform="translate(0,0)" fill="#e8ede9" fill-opacity="0.270588" d="M 401.503 912.895 C 404.453 921.666 395.513 922.612 393.902 919.092 C 391.592 914.045 394.526 911.94 398.582 911.168 L 401.503 912.895 z"/>
<path transform="translate(0,0)" fill="#e8ede9" fill-opacity="0.784314" d="M 1716.62 1273.71 C 1717.05 1273.45 1723.96 1268.43 1724.16 1270.95 C 1724.97 1281.23 1725.07 1292.19 1724.72 1302.54 C 1724.05 1298.8 1723.93 1278.14 1723.44 1277.53 C 1720.34 1276.5 1718.75 1280.38 1716.62 1273.71 z"/>
<path transform="translate(0,0)" fill="#e8ede9" fill-opacity="0.901961" d="M 538.212 985.928 L 541.07 987.37 C 538.089 1000.77 519.091 986.735 536.191 986.023 L 538.212 985.928 z"/>
<path transform="translate(0,0)" fill="#e8ede9" fill-opacity="0.509804" d="M 984.099 1365.19 C 983.312 1357.33 985.34 1359.3 991.002 1362.89 C 992.074 1370.49 991.466 1373.12 984.659 1367.61 L 984.099 1365.19 z"/>
<path transform="translate(0,0)" fill="#e8ede9" fill-opacity="0.807843" d="M 634.078 904.994 C 636.068 906.486 637.406 907.086 639.322 908.481 C 639.791 911.938 641.017 913.186 643.495 915.484 C 640.437 918.357 639.219 911.805 637.513 911.052 C 635.238 911.992 636.658 919.361 635.199 919.606 C 633.695 918.616 635.6 912.744 632.041 910.976 C 631.022 910.47 633.359 906.507 634.078 904.994 z"/>
<path transform="translate(0,0)" fill="#e8ede9" fill-opacity="0.14902" d="M 833.705 1335.11 C 829.483 1321.4 845.81 1328.6 838.627 1336.66 C 836.944 1336.03 835.428 1335.61 833.705 1335.11 z"/>
<path transform="translate(0,0)" fill="#e8ede9" fill-opacity="0.462745" d="M 515.545 1104.37 L 520.35 1107.4 C 514.263 1115.79 503.743 1109.27 513.792 1105.2 L 515.545 1104.37 z"/>
<path transform="translate(0,0)" fill="#e8ede9" fill-opacity="0.92549" d="M 458.978 1074.64 C 459.763 1075.01 460.547 1075.38 461.332 1075.74 C 459.188 1080.93 452.463 1080.91 449.978 1076.98 C 447.769 1073.5 456.846 1074.76 458.978 1074.64 z"/>
<path transform="translate(0,0)" fill="#e8ede9" d="M 509.89 971.229 C 513.756 972.728 517.297 974.848 521.041 976.708 C 521.103 978.234 521.02 978.123 520.066 979.531 C 517.57 978.899 515.268 978.305 512.802 977.56 C 512.202 977.839 511.443 978.429 510.755 978.454 C 510.18 977.83 510.071 972.593 509.89 971.229 z"/>
<path transform="translate(0,0)" fill="#e8ede9" fill-opacity="0.603922" d="M 592.857 1200.51 C 598.839 1199.93 602.736 1199.89 602.94 1206 C 599.964 1205.46 598.45 1204.86 595.997 1202.96 L 592.857 1200.51 z"/>
<path transform="translate(0,0)" fill="#e8ede9" fill-opacity="0.701961" d="M 634.121 1168.64 C 635.84 1169.92 636.878 1170.67 638.713 1171.82 C 638.619 1173.25 637.992 1175.59 636.512 1175.84 C 629.256 1177.06 633.678 1170.36 634.121 1168.64 z"/>
<path transform="translate(0,0)" fill="#e8ede9" fill-opacity="0.623529" d="M 1064.45 1459.78 C 1066.63 1453.29 1075.14 1459.02 1069.72 1463.49 C 1067.6 1462.12 1066.44 1461.34 1064.45 1459.78 z"/>
<path transform="translate(0,0)" fill="#e8ede9" fill-opacity="0.768627" d="M 953.618 1132.52 C 950.426 1119.46 957.535 1125.18 956.91 1134.43 C 955.774 1133.8 954.715 1133.23 953.618 1132.52 z"/>
<path transform="translate(0,0)" fill="#e8ede9" fill-opacity="0.917647" d="M 987.958 1225.83 C 988.811 1226.35 989.184 1226.61 989.964 1227.24 C 990.137 1228.38 991.165 1232.4 990.491 1233.26 C 988.428 1231.9 981.505 1233.6 987.958 1225.83 z"/>
<path transform="translate(0,0)" fill="#e8ede9" fill-opacity="0.560784" d="M 512.802 977.56 C 515.268 978.305 517.57 978.899 520.066 979.531 C 521.248 983.655 513.836 986.162 512.802 977.56 z"/>
<path transform="translate(0,0)" fill="#e8ede9" fill-opacity="0.65098" d="M 515.189 840.989 C 516.869 841.89 518.532 842.821 520.178 843.783 C 513.274 848.822 509.275 845.686 515.189 840.989 z"/>
<path transform="translate(0,0)" fill="#e8ede9" fill-opacity="0.690196" d="M 475.19 1137.28 C 479.387 1135.31 485.684 1138.56 481.408 1141.86 C 479.212 1140.48 477.244 1138.86 475.19 1137.28 z"/>
<path transform="translate(0,0)" fill="#e8ede9" fill-opacity="0.941176" d="M 1724.14 852.97 C 1713 855.194 1716.25 850.578 1722.95 850.635 L 1724.79 850.619 L 1724.14 852.97 z"/>
</svg>
